<svg fill="none" height="30" viewBox="0 0 173 30" width="173" xmlns="http://www.w3.org/2000/svg"><g fill="#000"><path d="m7.51315 30c-.68182 0-1.37675-.0656-2.0848-.1969-.68182-.1312-1.32431-.3675-1.92746-.7088-.60315-.3412-1.14074-.7744-1.61277-1.2994s-.85228-1.1025-1.140738-1.7325c-.288463-.6301-.485143-1.2863-.590038-1.9689-.1048962-.7088-.157344-1.4044-.157344-2.0869v-13.58494c0-.68253.0524478-1.36505.157344-2.04758.104895-.70878.301575-1.37818.590038-2.0082.288458-.63003.668708-1.20755 1.140738-1.73257s1.00962-.95816 1.61277-1.29943c.60315-.34126 1.24564-.57752 1.92746-.708775.70805-.131255 1.40298-.196882 2.0848-.196882.6556 0 1.29809.052502 1.92746.157506.65559.105004 1.27189.301887 1.84879.590651.6031.28876 1.1407.65627 1.6128 1.10254.4982.44627.8916.95816 1.18 1.53569.3147.57752.5507 1.18129.7081 1.81132.1573.63002.236 1.27317.236 1.92945v.11813h-3.0682v-.07876c0-.57752-.1049-1.15504-.3147-1.73256-.1835-.57753-.4851-1.0763-.9047-1.49631-.3934-.42002-.8785-.72191-1.45543-.90566-.57693-.18376-1.16697-.27564-1.77012-.27564-.65559 0-1.29808.13126-1.92745.39377-.60315.23625-1.10141.61689-1.49477 1.14192-.39336.52502-.66871 1.11566-.82605 1.77194-.13112.63003-.19668 1.27318-.19668 1.92945v13.58494c0 .6562.06556 1.3125.19668 1.9688.15734.63.43269 1.2075.82605 1.7326.39336.525.89162.9187 1.49477 1.1813.62937.2362 1.27186.3543 1.92745.3543.60315 0 1.19319-.0918 1.77012-.2756.57693-.1837 1.06203-.4856 1.45543-.9056.4196-.4201.7212-.9188.9047-1.4964.2098-.5775.3147-1.155.3147-1.7325v-.0788h3.0682v.1182c0 .6562-.0787 1.2994-.236 1.9294-.1574.63-.3934 1.2338-.7081 1.8113-.2884.5775-.6818 1.0894-1.18 1.5357-.4721.4463-1.0097.8138-1.6128 1.1026-.5769.2887-1.1932.4856-1.84879.5906-.62937.105-1.27186.1575-1.92746.1575z"/><path d="m27.3778 30c-.7081 0-1.4161-.0656-2.1242-.1969-.708-.1312-1.3767-.3675-2.0061-.7088-.6031-.3675-1.1538-.8137-1.6521-1.3388-.472-.5512-.8654-1.1419-1.1801-1.7719-.2884-.6563-.4851-1.3388-.59-2.0476s-.1574-1.4175-.1574-2.1263v-4.7252c0-.7088.0525-1.4176.1574-2.1263.1049-.7088.3016-1.3782.59-2.0082.2885-.6563.6687-1.247 1.1408-1.772.4982-.5513 1.0489-.9975 1.6521-1.33878.6031-.34127 1.2587-.57753 1.9668-.70878.708-.15751 1.4161-.23626 2.1241-.23626s1.4161.07875 2.1241.23626c.7081.13125 1.3637.36751 1.9668.70878.6032.34128 1.1408.78748 1.6128 1.33878.4983.525.8916 1.1157 1.1801 1.772.2884.63.4851 1.2994.59 2.0082.1049.7087.1574 1.4175.1574 2.1263v3.7408h-12.1942v.9844c0 .4463.0263.8925.0787 1.3388.0525.4463.1574.8794.3147 1.2994.1836.42.4065.8138.6687 1.1813.2885.3675.6163.6825.9834.945.3934.2363.8129.4069 1.2588.5119.4458.105.8916.1575 1.3374.1575.4982 0 .9965-.0525 1.4947-.1575.5245-.105.9965-.2887 1.4161-.5512s.7605-.6169 1.0228-1.0632c.2884-.4463.4458-.9319.472-1.4569h3.0682c-.0262.6037-.1442 1.1944-.354 1.7719-.1836.5513-.4589 1.0763-.8261 1.5751-.3409.4725-.7605.8925-1.2587 1.26-.4721.3413-.9834.6169-1.5341.8269s-1.1277.3544-1.7308.4332c-.6032.0787-1.1932.1181-1.7701.1181zm4.4843-11.9311v-.9844c0-.4463-.0263-.8925-.0787-1.3388-.0525-.4463-.1574-.8794-.3147-1.2994s-.3802-.8138-.6687-1.1813c-.2622-.3675-.5769-.6694-.9441-.9057-.3671-.2625-.7736-.4463-1.2194-.5513s-.8916-.1575-1.3374-.1575-.8916.0525-1.3374.1575-.8523.2888-1.2194.5513c-.3672.2363-.695.5382-.9834.9057-.2623.3675-.4721.7613-.6294 1.1813s-.2622.8531-.3147 1.2994c-.0524.4463-.0787.8925-.0787 1.3388v.9844z"/><path d="m42.0107 29.685v-20.47581h3.0682v4.25271c.1836-.5776.4065-1.142.6687-1.6932.2885-.5513.6425-1.0501 1.0621-1.4963.4196-.44631.9178-.78757 1.4948-1.02383.5769-.23626 1.1669-.35439 1.7701-.35439.4982 0 .9834.06563 1.4554.19688.4983.105.9441.30189 1.3374.59065.3934.26251.7212.60379.9834 1.02379.2623.42.4721.8663.6294 1.3388.1573.4463.2622.9188.3147 1.4176.0524.4725.0787.9581.0787 1.4569h-3.0682c0-.3938-.0394-.7744-.1181-1.1419-.0524-.3938-.1835-.7613-.3933-1.1026-.1836-.3412-.4589-.5906-.8261-.7481-.3409-.1838-.708-.2757-1.1014-.2757-.5244 0-1.0358.1182-1.5341.3544-.472.21-.8785.5119-1.2194.9057-.3147.3938-.5769.84-.7867 1.3388-.2098.4725-.3671.9713-.472 1.4963-.1049.4988-.1836 1.0107-.236 1.5357-.0263.525-.0394 1.0369-.0394 1.5357v10.8679z"/><path d="m69.2311 30c-.5769 0-1.1669-.0787-1.7701-.2363-.5769-.1312-1.1145-.3675-1.6127-.7087-.4721-.3675-.8785-.8007-1.2194-1.2995-.341-.4987-.6163-1.0237-.8261-1.575-.1836-.5775-.3147-1.1551-.3934-1.7326-.0524-.6038-.0786-1.2075-.0786-1.8113v-10.6711h-3.7763v-2.75631h3.7763v-8.465954h3.0682v8.465954h6.9231v2.75631h-6.9231v10.6711c0 .3413.0131.6825.0393 1.0238.0262.3412.0787.6825.1573 1.0238.0787.315.1836.63.3147.945.1312.315.3016.6038.5114.8663.236.2363.5114.42.8261.5513.3409.1312.6687.1968.9833.1968.3147 0 .6163-.0525.9048-.1575.3147-.105.5769-.2625.7867-.4725.236-.21.4196-.4462.5507-.7088.1573-.2887.2753-.5775.354-.8662.1049-.3151.1705-.6301.1967-.9451.0524-.315.0787-.63.0787-.945v-.2363h3.0682v.3938c0 .5775-.0525 1.1419-.1574 1.6932s-.2622 1.0894-.472 1.6144c-.2098.4988-.4983.9844-.8654 1.457-.3409.4462-.7474.8269-1.2194 1.1419-.472.2887-.9834.4856-1.5341.5906-.5507.1313-1.1145.1969-1.6915.1969z"/></g><g fill="#f00"><path d="m79.419 29.6853v-2.7564h5.3497v-23.42903h-5.3497v-2.756357h13.7676v2.756357h-5.3497v23.42903h5.3497v2.7564z"/><path d="m98.6543 29.6853v-2.7564l11.1317-23.42903h-11.1317v-2.756357h14.6327v2.756357l-11.132 23.42903h11.132v2.7564z"/><path d="m118.322 29.6853v-28.941787h6.215c.761 0 1.521.065627 2.282.196882.76.131255 1.481.367515 2.163.708775.708.31501 1.351.73503 1.928 1.26005s1.036 1.1288 1.376 1.81132c.368.68253.617 1.40443.748 2.16571.157.76128.236 1.52256.236 2.28384v12.04921c0 .7875-.079 1.5619-.236 2.3232-.131.7613-.38 1.4832-.748 2.1657-.34.6826-.799 1.2863-1.376 1.8114-.577.525-1.22.9581-1.928 1.2994-.682.315-1.403.5381-2.163.6694-.761.1312-1.534.1969-2.321.1969zm3.068-2.7564h3.108c.524 0 1.036-.0394 1.534-.1181.498-.105.97-.2625 1.416-.4725.472-.2363.892-.5382 1.259-.9057s.655-.7744.865-1.2207c.236-.4725.394-.9581.472-1.4569.105-.4988.158-1.0107.158-1.5357v-12.04921c0-.49877-.053-.99754-.158-1.49631-.078-.49877-.236-.97128-.472-1.41755-.21-.47252-.498-.89254-.865-1.26005-.367-.36752-.787-.65628-1.259-.86629-.446-.23626-.918-.39376-1.416-.47251-.498-.10501-1.01-.15751-1.534-.15751h-3.108z"/><path d="m137.203 29.6853 6.333-28.941787h3.541l2.124 9.647287 4.209 19.2945h-3.147l-1.534-7.4816h-6.845l-1.534 7.4816zm10.975-10.2379-1.849-9.0566c-.183-.84007-.367-1.6801-.55-2.52013-.158-.84004-.315-1.68007-.472-2.5201-.158.84003-.328 1.68006-.512 2.5201-.157.84003-.328 1.68006-.511 2.52013l-1.849 9.0566z"/><path d="m163.44 29.6853v-26.18543h-6.018v-2.756357h15.105v2.756357h-6.018v26.18543z"/></g></svg>